<svg width="30" height="30" viewBox="0 0 30 30" fill="none" xmlns="http://www.w3.org/2000/svg">
<path d="M0 15C0 12.0333 0.879734 9.13319 2.52796 6.66645C4.17618 4.19972 6.51886 2.27713 9.25975 1.14181C12.0006 0.00649941 15.0166 -0.290551 17.9264 0.288227C20.8361 0.867006 23.5088 2.29562 25.6066 4.3934C27.7044 6.49119 29.133 9.16393 29.7118 12.0736C30.2906 14.9834 29.9935 17.9994 28.8582 20.7403C27.7229 23.4811 25.8003 25.8238 23.3335 27.472C20.8668 29.1203 17.9667 30 15 30C11.0218 30 7.20644 28.4196 4.3934 25.6066C1.58035 22.7936 0 18.9783 0 15ZM28 15C28 12.4288 27.2376 9.91543 25.8091 7.77759C24.3806 5.63975 22.3503 3.97351 19.9749 2.98957C17.5994 2.00563 14.9856 1.74819 12.4638 2.2498C9.94207 2.75141 7.62569 3.98954 5.80761 5.80762C3.98953 7.6257 2.7514 9.94208 2.24979 12.4638C1.74818 14.9856 2.00563 17.5994 2.98957 19.9749C3.9735 22.3503 5.63975 24.3806 7.77759 25.8091C9.91542 27.2376 12.4288 28 15 28C18.4478 28 21.7544 26.6304 24.1924 24.1924C26.6304 21.7544 28 18.4478 28 15Z" fill="#292929"/>
<path d="M11.1267 20.619L16.7067 14.7497L11.1267 8.88048C10.9405 8.68376 10.8359 8.41765 10.8359 8.14026C10.8359 7.86288 10.9405 7.59677 11.1267 7.40005C11.3141 7.20449 11.5675 7.09473 11.8317 7.09473C12.0959 7.09473 12.3494 7.20449 12.5367 7.40005L18.8967 14.0778C19.0653 14.2566 19.1598 14.4981 19.1598 14.7497C19.1598 15.0013 19.0653 15.2428 18.8967 15.4217L12.5367 22.0994C12.3494 22.295 12.0959 22.4047 11.8317 22.4047C11.5675 22.4047 11.3141 22.295 11.1267 22.0994C10.9405 21.9027 10.8359 21.6366 10.8359 21.3592C10.8359 21.0818 10.9405 20.8157 11.1267 20.619Z" fill="#292929"/>
</svg>
