<svg width="30" height="30" viewBox="0 0 30 30" fill="none" xmlns="http://www.w3.org/2000/svg">
<path d="M30 15C30 12.0333 29.1203 9.13319 27.472 6.66645C25.8238 4.19972 23.4811 2.27713 20.7403 1.14181C17.9994 0.00649941 14.9834 -0.290551 12.0736 0.288227C9.16393 0.867006 6.49119 2.29562 4.3934 4.3934C2.29562 6.49119 0.867005 9.16393 0.288227 12.0736C-0.290552 14.9834 0.00649845 17.9994 1.14181 20.7403C2.27713 23.4811 4.19971 25.8238 6.66645 27.472C9.13319 29.1203 12.0333 30 15 30C18.9782 30 22.7936 28.4196 25.6066 25.6066C28.4196 22.7936 30 18.9782 30 15V15ZM2.00001 15C2.00001 12.4288 2.76244 9.91543 4.1909 7.77759C5.61936 5.63975 7.64968 3.97351 10.0251 2.98957C12.4006 2.00563 15.0144 1.74819 17.5362 2.2498C20.0579 2.75141 22.3743 3.98953 24.1924 5.80762C26.0105 7.6257 27.2486 9.94208 27.7502 12.4638C28.2518 14.9856 27.9944 17.5994 27.0104 19.9749C26.0265 22.3503 24.3603 24.3806 22.2224 25.8091C20.0846 27.2376 17.5712 28 15 28C11.5522 28 8.24559 26.6304 5.80762 24.1924C3.36964 21.7544 2.00001 18.4478 2.00001 15V15Z" fill="#292929"/>
<path d="M18.8702 20.619L13.2902 14.7497L18.8702 8.88048C19.0565 8.68376 19.161 8.41765 19.161 8.14026C19.161 7.86288 19.0565 7.59677 18.8702 7.40005V7.40005C18.6829 7.20449 18.4294 7.09473 18.1652 7.09473C17.901 7.09473 17.6476 7.20449 17.4602 7.40005L11.1002 14.0778C10.9317 14.2566 10.8371 14.4981 10.8371 14.7497C10.8371 15.0014 10.9317 15.2428 11.1002 15.4217L17.4602 22.0994C17.6476 22.295 17.901 22.4047 18.1652 22.4047C18.4294 22.4047 18.6829 22.295 18.8702 22.0994V22.0994C19.0565 21.9027 19.161 21.6366 19.161 21.3592C19.161 21.0818 19.0565 20.8157 18.8702 20.619Z" fill="#292929"/>
</svg>
